<?xml version="1.0" encoding="UTF-8"?>
<!-- Generiert durch Microsoft Visio, SVG Export eipPlcSkAm64EtherNetIPsetup.svg TMDSAM64GPEMV EtherNet/IP -->
<svg class="st10" width="5.5918in" height="2.1115in" color-interpolation-filters="sRGB" version="1.1" viewBox="0 0 402.61 152.03" xml:space="preserve" xmlns="http://www.w3.org/2000/svg" xmlns:cc="http://creativecommons.org/ns#" xmlns:dc="http://purl.org/dc/elements/1.1/" xmlns:rdf="http://www.w3.org/1999/02/22-rdf-syntax-ns#">
	<title>Setup Texas Instruments SK-AM64 CODESYS EtherNet/IP Adapter</title>

	<style type="text/css">
	<![CDATA[
		.st1 {fill:none;stroke:#ffffff;stroke-linecap:round;stroke-linejoin:round;stroke-width:0.75}
		.st2 {fill:none;stroke:none;stroke-linecap:round;stroke-linejoin:round;stroke-width:0.75}
		.st3 {fill:#000000;font-family:Calibri;font-size:0.833336em}
		.st4 {font-size:1em}
		.st5 {fill:#ffffff;stroke:#000000;stroke-linecap:round;stroke-linejoin:round;stroke-width:0.75}
		.st6 {fill:#000000;font-family:Calibri;font-size:0.499992em}
		.st7 {stroke:#0070c0;stroke-linecap:round;stroke-linejoin:round;stroke-width:0.75}
		.st8 {stroke:#00b050;stroke-linecap:round;stroke-linejoin:round;stroke-width:0.75}
		.st9 {fill:#000000}
		.st10 {fill:none;fill-rule:evenodd;font-size:12px;overflow:visible;stroke-linecap:square;stroke-miterlimit:3}
	]]>
	</style>

	<g transform="translate(-18 -18)">
		<title>TMDSAM64EMV EtherNet/IP</title>
		<g transform="translate(18 -672.24)">
			<title>Tabelle.35</title>
			<g transform="translate(50.457 -5.5275)">
				<title>Rechteck.34</title>
				<rect class="st1" y="834.8" width="7.0866" height="7.0866"/>
			</g>
			<g transform="translate(395.15 -47.055)">
				<title>Rechteck.20</title>
				<rect class="st1" y="834.8" width="7.0866" height="7.0866"/>
			</g>
			<g transform="translate(0 -109.13)">
				<title>Tabelle.5</title>
				<desc>CODESYS Development System</desc>
				<rect class="st2" y="799.37" width="114.42" height="42.52"/>
				<text class="st3" x="38.68" y="812.37">CODESYS<tspan class="st4" x="13.9" dy="1.2em">Development System</tspan></text>			</g>
			<g transform="translate(189.02 -14.173)">
				<title>Rechteck.6</title>
				<desc>SK-AM64</desc>
				<rect class="st5" y="763.94" width="49.606" height="77.953"/>
				<text class="st6" x="13.61" y="771.34003">SK-AM64</text>			</g>
			<g transform="translate(217.37 -35.433)">
				<title>Square.8</title>
				<rect class="st5" y="827.72" width="14.173" height="14.173"/>
			</g>
			<g transform="translate(189.02 -28.346)">
				<title>Tabelle.9</title>
				<desc>1</desc>
				<rect class="st2" y="827.72" width="14.173" height="14.173"/>
				<text class="st6" x="2" y="835.12">1</text>			</g>
			<g transform="translate(224.45 -28.346)">
				<title>Tabelle.10</title>
				<desc>2</desc>
				<rect class="st2" y="827.72" width="14.173" height="14.173"/>
				<text class="st6" x="9.1300001" y="835.12">2</text>			</g>
			<g transform="translate(156.61 -102.05)">
				<title>Tabelle.11</title>
				<desc>Linux ARM64 CODESYS Runtime System EtherNet/IP Scanner</desc>
				<rect class="st2" y="792.28" width="114.42" height="49.606"/>
				<text class="st3" x="10.8" y="805.28003">Linux ARM64 CODESYS <tspan class="st4" x="24.129999" dy="1.2em">Runtime System</tspan><tspan class="st4" x="15.65" dy="1.2em">EtherNet/IP Scanner</tspan></text>			</g>
			<g transform="translate(302.4 -102.05)">
				<title>Tabelle.12</title>
				<desc>EtherNet/IP Adapter</desc>
				<rect class="st2" y="792.28" width="85.039" height="49.606"/>
				<text class="st3" x="18.379999" y="805.28003">EtherNet/IP <tspan class="st4" x="26.07" dy="1.2em">Adapter</tspan></text>			</g>
			<g transform="translate(196.11 -56.693)">
				<title>Dynamischer Verbinder</title>
				<path class="st7" d="m0 834.8h-96.38"/>
			</g>
			<g transform="translate(14.689)">
				<title>Rechteck.19</title>
				<rect class="st1" y="834.8" width="85.039" height="7.0866"/>
			</g>
			<g transform="translate(295.32 -21.26)">
				<title>Rechteck</title>
				<desc>Sitara AM64x/AM243x EVM</desc>
				<rect class="st5" y="785.2" width="99.213" height="56.693"/>
				<text class="st3" x="20.49" y="810.53998">Sitara AM64x/<tspan class="st4" x="21.99" dy="1.2em">AM243x EVM</tspan></text>			</g>
			<g transform="translate(196.11 -35.433)">
				<title>Square.26</title>
				<rect class="st5" y="827.72" width="14.173" height="14.173"/>
			</g>
			<g transform="translate(231.54 -42.52)">
				<title>Dynamischer Verbinder.27</title>
				<path class="st8" d="m0 841.89h35.43v-21.26h28.35"/>
			</g>
			<g transform="translate(213.82 -56.693)">
				<title>Tabelle.28</title>
				<desc>CPSW</desc>
				<rect class="st2" y="827.72" width="24.803" height="14.173"/>
				<text class="st6" x="2" y="836.59998">CPSW</text>			</g>
			<g transform="translate(295.32 -56.693)">
				<title>Quadrat.8</title>
				<rect class="st5" y="827.72" width="14.173" height="14.173"/>
			</g>
			<g transform="translate(14.689 -7.0866)">
				<title>PC</title>
				<g transform="translate(0 -5.6714)">
					<title>Tabelle.2</title>
					<path class="st5" d="m57.61 821.01v7.17h4.34l4.1 5.15h18.99v-65.14h-27.43v9.35h11.76v43.47zm11.76-43.47h-65.13v43.47h65.13zm3.51 64.35-10.93-13.71h-51.02l-10.93 13.71zm-30.71-20.88h-11.46v7.17h11.46z"/>
				</g>
				<g transform="translate(8.4634 -30.472)">
					<title>Tabelle.3</title>
					<path class="st5" d="m56.78 806.65h-56.78v35.24h56.78z"/>
				</g>
				<g transform="translate(9.9183 -8.5004)">
					<title>Tabelle.4</title>
					<path class="st9" d="m64.14 778.31h5.87v-2.28h-5.87zm0 4.08h5.87v-2.28h-5.87zm-14.37 54.18h-3.24l1.81 2.02h3.49zm-3.67-3.57h-2.79l1.95 2.17h3.06zm-1.31 3.57h-3.24l1.42 2.02h3.49zm-2.98-3.57h-2.79l1.53 2.17h3.06zm-2.01 3.57h-3.24l1.04 2.02h3.49zm-2.27-3.57h-2.79l1.11 2.21h3.07zm-2.71 3.57h-3.24l0.65 2.02h3.49zm-1.52-3.42h-2.81l0.65 2.06h3.07zm-3.46 3.42h-3.24l0.26 2.02h3.49zm-0.82-3.25h-2.83l0.25 2.02h3.09zm-4.36 0h-2.83l-0.13 2.02h3.08zm0.2 3.25h-3.24l-0.14 2.02h3.5zm-4.55-3.25h-2.83l-0.52 2.02h3.08zm-0.44 3.25h-3.23l-0.53 2.02h3.5zm17.77 3.31h-22.85l-0.59 2.01h24.43zm-21.68-6.56h-2.84l-0.91 2.02h3.09zm-1.07 3.25h-3.24l-0.91 2.02h3.49zm-3.29-3.25h-2.83l-1.3 2.02h3.08zm-1.69 3.25h-3.24l-1.3 2.02h3.49zm-2.66-3.25h-2.83l-1.69 2.02h3.08zm-2.32 3.25h-3.24l-1.69 2.02h3.49z"/>
				</g>
			</g>
			<g transform="translate(196.11 -56.693)">
				<title>Quadrat</title>
				<rect class="st5" y="827.72" width="14.173" height="14.173"/>
			</g>
		</g>
	</g>
<metadata><rdf:RDF><cc:Work rdf:about=""><dc:title>Setup Texas Instruments SK-AM64 CODESYS EtherNet/IP Adapter</dc:title></cc:Work></rdf:RDF></metadata></svg>
