<?xml version="1.0" encoding="UTF-8" standalone="no"?>
<svg
   width="680.5"
   height="580"
   version="1.1"
   viewBox="-0.5 -0.5 680.5 580"
   id="svg392"
   sodipodi:docname="eip_directory_structure_examples.svg"
   inkscape:version="1.2.2 (732a01da63, 2022-12-09)"
   xmlns:inkscape="http://www.inkscape.org/namespaces/inkscape"
   xmlns:sodipodi="http://sodipodi.sourceforge.net/DTD/sodipodi-0.dtd"
   xmlns="http://www.w3.org/2000/svg"
   xmlns:svg="http://www.w3.org/2000/svg"
   xmlns:rdf="http://www.w3.org/1999/02/22-rdf-syntax-ns#"
   xmlns:cc="http://creativecommons.org/ns#"
   xmlns:dc="http://purl.org/dc/elements/1.1/">
  <defs
     id="defs396" />
  <sodipodi:namedview
     id="namedview394"
     pagecolor="#ffffff"
     bordercolor="#666666"
     borderopacity="1.0"
     inkscape:showpageshadow="2"
     inkscape:pageopacity="0.0"
     inkscape:pagecheckerboard="0"
     inkscape:deskcolor="#d1d1d1"
     showgrid="false"
     inkscape:zoom="1.4431034"
     inkscape:cx="340.23896"
     inkscape:cy="289.65353"
     inkscape:window-width="1920"
     inkscape:window-height="1017"
     inkscape:window-x="-8"
     inkscape:window-y="-8"
     inkscape:window-maximized="1"
     inkscape:current-layer="svg392" />
  <title
     id="title2">EtherNet/IP Directory Structure - Device Profile Examples</title>
  <rect
     y="19.5"
     width="680"
     height="20"
     fill="#e6e6e6"
     pointer-events="all"
     stroke="#000000"
     stroke-width="0.5"
     id="rect4"
     x="-0.25" />
  <rect
     x="275.75"
     width="160"
     height="20"
     fill="none"
     pointer-events="all"
     id="rect6"
     y="-0.5" />
  <text
     x="277.25"
     y="13"
     fill="#000000"
     font-family="Arial"
     font-size="12px"
     id="text8">${SDK_INSTALL_PATH}/</text>
  <path
     d="m 45.75,29.5 h -33 v -14"
     fill="none"
     pointer-events="stroke"
     stroke="#000000"
     stroke-miterlimit="10"
     id="path14" />
  <rect
     x="275.75"
     y="39.5"
     width="120"
     height="20"
     fill="none"
     pointer-events="all"
     id="rect16" />
  <text
     x="277.25"
     y="53"
     fill="#000000"
     font-family="Arial"
     font-size="12px"
     id="text18">industrial_comms</text>
  <path
     d="m 85.75,49.5 h -33 v -14"
     fill="none"
     pointer-events="stroke"
     stroke="#000000"
     stroke-miterlimit="10"
     id="path24" />
  <rect
     x="275.75"
     y="59.5"
     width="160"
     height="20"
     fill="none"
     pointer-events="all"
     id="rect26" />
  <text
     x="277.25"
     y="73"
     fill="#000000"
     font-family="Arial"
     font-size="12px"
     id="text28">ethernetip_adapter_demo</text>
  <path
     d="m 125.75,69.5 h -33 v -14"
     fill="none"
     pointer-events="stroke"
     stroke="#000000"
     stroke-miterlimit="10"
     id="path34" />
  <rect
     x="275.75"
     y="139.5"
     width="160"
     height="20"
     fill="none"
     pointer-events="all"
     id="rect36" />
  <text
     x="277.25"
     y="153"
     fill="#000000"
     font-family="Arial"
     font-size="12px"
     id="text38">deviceProfiles</text>
  <rect
     x="275.75"
     y="239.5"
     width="320"
     height="20"
     fill="none"
     pointer-events="all"
     id="rect44" />
  <text
     x="277.25"
     y="253"
     fill="#000000"
     font-family="Arial"
     font-size="12px"
     id="text46">genericDevice (Device Type: 0x2B)</text>
  <rect
     x="5.75"
     y="3.5"
     width="14"
     height="12"
     pointer-events="all"
     id="rect52"
     style="fill:none" />
  <path
     d="M 6.15,15.5 8.75,8.8 C 8.92,8.41 9.35,8.12 9.71,8.11 h 9.4 c 0.32,0.02 0.7,0.39 0.45,1 l -2.3,6.4 z M 5.78,14.87 v -8.8 c 0,-0.5 0.4,-0.84 0.72,-0.84 h 5.8 l 0.83,-1.3 C 13.25,3.77 13.5,3.52 13.8,3.51 h 3.5 c 0.38,0 0.75,0.36 0.75,0.83 v 3.2 h -8.4 c -0.55,0 -1.2,0.4 -1.4,0.98 z"
     pointer-events="all"
     stroke="#000000"
     stroke-miterlimit="10"
     stroke-width="0.5"
     id="path54"
     style="fill:none" />
  <g
     stroke-dasharray="3, 3"
     id="g62"
     style="fill:none;stroke:#000000;stroke-miterlimit:10"
     transform="translate(-0.25,-0.5)">
    <path
       d="m 133,76 v 14 h 33"
       id="path56" />
    <path
       d="M 166,110 H 133 V 76"
       id="path58" />
    <path
       d="M 166,130 H 133 V 76"
       id="path60" />
  </g>
  <path
     d="m 132.75,75.5 v 74 h 33"
     id="path64"
     style="fill:none;stroke:#000000;stroke-miterlimit:10" />
  <path
     d="m 205.75,249.5 h -33 v -94"
     id="path66"
     style="fill:none;stroke:#000000;stroke-miterlimit:10" />
  <rect
     x="275.75"
     y="259.5"
     width="80"
     height="20"
     pointer-events="all"
     id="rect70"
     style="fill:none" />
  <text
     x="277.25"
     y="273"
     fill="#000000"
     font-family="Arial"
     font-size="12px"
     id="text74">eds</text>
  <rect
     x="275.75"
     y="279.5"
     width="80"
     height="20"
     fill="none"
     pointer-events="all"
     id="rect80" />
  <text
     x="277.25"
     y="293"
     fill="#000000"
     font-family="Arial"
     font-size="12px"
     id="text82">soc</text>
  <path
     d="m 212.75,255.5 v 54 h 33"
     pointer-events="stroke"
     stroke="#000000"
     stroke-miterlimit="10"
     id="path88"
     style="fill:none" />
  <rect
     x="85.75"
     y="43.5"
     width="14"
     height="12"
     id="rect90"
     style="fill:none" />
  <path
     d="m 85.75,55.5 2.6,-6.7 c 0.17,-0.39 0.6,-0.68 0.96,-0.69 h 9.4 c 0.32,0.02 0.7,0.39 0.45,1 l -2.3,6.4 z m -0.37,-0.63 v -8.8 c 0,-0.5 0.4,-0.84 0.72,-0.84 h 5.8 l 0.83,-1.3 c 0.12,-0.16 0.37,-0.41 0.67,-0.42 h 3.5 c 0.38,0 0.75,0.36 0.75,0.83 v 3.2 h -8.4 c -0.55,0 -1.2,0.4 -1.4,0.98 z"
     stroke="#000000"
     stroke-miterlimit="10"
     stroke-width="0.5"
     id="path92"
     style="fill:none" />
  <rect
     x="125.75"
     y="63.5"
     width="14"
     height="12"
     id="rect94"
     style="fill:none" />
  <path
     d="m 125.75,75.5 2.6,-6.7 c 0.17,-0.39 0.6,-0.68 0.96,-0.69 h 9.4 c 0.32,0.02 0.7,0.39 0.45,1 l -2.3,6.4 z m -0.37,-0.63 v -8.8 c 0,-0.5 0.4,-0.84 0.72,-0.84 h 5.8 l 0.83,-1.3 c 0.12,-0.16 0.37,-0.41 0.67,-0.42 h 3.5 c 0.38,0 0.75,0.36 0.75,0.83 v 3.2 h -8.4 c -0.55,0 -1.2,0.4 -1.4,0.98 z"
     stroke="#000000"
     stroke-miterlimit="10"
     stroke-width="0.5"
     id="path96"
     style="fill:none" />
  <rect
     x="165.75"
     y="83.5"
     width="12"
     height="12"
     id="rect98"
     style="fill:none" />
  <path
     d="m 171.75,85.5 1.4,-1.4 c 0.13,-0.12 0.27,-0.19 0.45,-0.19 h 3.1 c 0.32,0 0.71,0.3 0.71,0.81 v 0.79 z m -6.4,10 v -9 c 0,-0.44 0.36,-0.78 0.7,-0.78 h 11 v 9.8 z"
     stroke="#000000"
     stroke-miterlimit="10"
     stroke-width="0.5"
     id="path100"
     style="fill:none" />
  <rect
     x="165.75"
     y="103.5"
     width="12"
     height="12"
     id="rect102"
     style="fill:none" />
  <path
     d="m 171.75,105.5 1.4,-1.4 c 0.13,-0.12 0.27,-0.19 0.45,-0.19 h 3.1 c 0.32,0 0.71,0.3 0.71,0.81 v 0.79 z m -6.4,10 v -9 c 0,-0.44 0.36,-0.78 0.7,-0.78 h 11 v 9.8 z"
     stroke="#000000"
     stroke-miterlimit="10"
     stroke-width="0.5"
     id="path104"
     style="fill:none" />
  <rect
     x="165.75"
     y="123.5"
     width="12"
     height="12"
     id="rect106"
     style="fill:none" />
  <path
     d="m 171.75,125.5 1.4,-1.4 c 0.13,-0.12 0.27,-0.19 0.45,-0.19 h 3.1 c 0.32,0 0.71,0.3 0.71,0.81 v 0.79 z m -6.4,10 v -9 c 0,-0.44 0.36,-0.78 0.7,-0.78 h 11 v 9.8 z"
     stroke="#000000"
     stroke-miterlimit="10"
     stroke-width="0.5"
     id="path108"
     style="fill:none" />
  <rect
     x="165.75"
     y="143.5"
     width="14"
     height="12"
     id="rect110"
     style="fill:none" />
  <path
     d="m 165.75,155.5 2.6,-6.7 c 0.17,-0.39 0.6,-0.68 0.96,-0.69 h 9.4 c 0.32,0.02 0.7,0.39 0.45,1 l -2.3,6.4 z m -0.37,-0.63 v -8.8 c 0,-0.5 0.4,-0.84 0.72,-0.84 h 5.8 l 0.83,-1.3 c 0.12,-0.16 0.37,-0.41 0.67,-0.42 h 3.5 c 0.38,0 0.75,0.36 0.75,0.83 v 3.2 h -8.4 c -0.55,0 -1.2,0.4 -1.4,0.98 z"
     stroke="#000000"
     stroke-miterlimit="10"
     stroke-width="0.5"
     id="path112"
     style="fill:none" />
  <rect
     x="245.75"
     y="263.5"
     width="12"
     height="12"
     id="rect114"
     style="fill:none" />
  <path
     d="m 251.75,265.5 1.4,-1.4 c 0.13,-0.12 0.27,-0.19 0.45,-0.19 h 3.1 c 0.32,0 0.71,0.3 0.71,0.81 v 0.79 z m -6.4,10 v -9 c 0,-0.44 0.36,-0.78 0.7,-0.78 h 11 v 9.8 z"
     stroke="#000000"
     stroke-miterlimit="10"
     stroke-width="0.5"
     id="path116"
     style="fill:none" />
  <rect
     x="205.75"
     y="243.5"
     width="14"
     height="12"
     id="rect118"
     style="fill:none" />
  <path
     d="m 205.75,255.5 2.6,-6.7 c 0.17,-0.39 0.6,-0.68 0.96,-0.69 h 9.4 c 0.32,0.02 0.7,0.39 0.45,1 l -2.3,6.4 z m -0.37,-0.63 v -8.8 c 0,-0.5 0.4,-0.84 0.72,-0.84 h 5.8 l 0.83,-1.3 c 0.12,-0.16 0.37,-0.41 0.67,-0.42 h 3.5 c 0.38,0 0.75,0.36 0.75,0.83 v 3.2 h -8.4 c -0.55,0 -1.2,0.4 -1.4,0.98 z"
     stroke="#000000"
     stroke-miterlimit="10"
     stroke-width="0.5"
     id="path120"
     style="fill:none" />
  <path
     d="m 245.75,269.5 h -33 v -14"
     pointer-events="stroke"
     stroke="#000000"
     stroke-miterlimit="10"
     id="path124"
     style="fill:none" />
  <rect
     x="245.75"
     y="283.5"
     width="12"
     height="12"
     pointer-events="all"
     id="rect126"
     style="fill:none" />
  <path
     d="m 251.75,285.5 1.4,-1.4 c 0.13,-0.12 0.27,-0.19 0.45,-0.19 h 3.1 c 0.32,0 0.71,0.3 0.71,0.81 v 0.79 z m -6.4,10 v -9 c 0,-0.44 0.36,-0.78 0.7,-0.78 h 11 v 9.8 z"
     pointer-events="all"
     stroke="#000000"
     stroke-miterlimit="10"
     stroke-width="0.5"
     id="path128"
     style="fill:none" />
  <path
     d="m 245.75,289.5 h -33 v -34"
     pointer-events="stroke"
     stroke="#000000"
     stroke-miterlimit="10"
     id="path130"
     style="fill:none" />
  <rect
     x="245.75"
     y="303.5"
     width="9"
     height="12"
     pointer-events="all"
     id="rect132"
     style="fill:none" />
  <path
     d="m 247.75,309.5 v -0.57 h 4.6 v 0.57 z m 0,1.5 v -0.57 h 4.6 V 311 Z m 0,1.5 v -0.57 h 4.6 v 0.57 z m -1.7,2.1 h 8 v -7.8 h -2.6 v -3 h -5.4 z m -0.51,0.57 v -12 h 6.3 l 2.7,3 v 9 z"
     fill="#505050"
     pointer-events="all"
     id="path136" />
  <rect
     x="275.75"
     y="299.5"
     width="120"
     height="20"
     fill="none"
     pointer-events="all"
     id="rect138" />
  <text
     x="277.25"
     y="313"
     fill="#000000"
     font-family="Arial"
     font-size="12px"
     id="text140">app_generic_device.c</text>
  <rect
     x="245.75"
     y="323.5"
     width="9"
     height="12"
     fill="none"
     id="rect146" />
  <path
     d="m 247.75,329.5 v -0.57 h 4.6 v 0.57 z m 0,1.5 v -0.57 h 4.6 V 331 Z m 0,1.5 v -0.57 h 4.6 v 0.57 z m -1.7,2.1 h 8 v -7.8 h -2.6 v -3 h -5.4 z m -0.51,0.57 v -12 h 6.3 l 2.7,3 v 9 z"
     fill="#505050"
     id="path148" />
  <rect
     x="275.75"
     y="319.5"
     width="120"
     height="20"
     fill="none"
     id="rect150" />
  <text
     x="277.25"
     y="333"
     fill="#000000"
     font-family="Arial"
     font-size="12px"
     id="text154">app_generic_device.h</text>
  <path
     d="m 212.75,255.5 v 74 h 33"
     pointer-events="stroke"
     stroke="#000000"
     stroke-miterlimit="10"
     id="path160"
     style="fill:none" />
  <rect
     x="205.75"
     y="403.5"
     width="14"
     height="12"
     id="rect162"
     style="fill:none" />
  <path
     d="m 205.75,415.5 2.6,-6.7 c 0.17,-0.39 0.6,-0.68 0.96,-0.69 h 9.4 c 0.32,0.02 0.7,0.39 0.45,1 l -2.3,6.4 z m -0.37,-0.63 v -8.8 c 0,-0.5 0.4,-0.84 0.72,-0.84 h 5.8 l 0.83,-1.3 c 0.12,-0.16 0.37,-0.41 0.67,-0.42 h 3.5 c 0.38,0 0.75,0.36 0.75,0.83 v 3.2 h -8.4 c -0.55,0 -1.2,0.4 -1.4,0.98 z"
     stroke="#000000"
     stroke-miterlimit="10"
     stroke-width="0.5"
     id="path164"
     style="fill:none" />
  <rect
     x="275.75"
     y="399.5"
     width="400"
     height="20"
     id="rect166"
     style="fill:none" />
  <text
     x="277.25"
     y="413"
     fill="#000000"
     font-family="Arial"
     font-size="12px"
     id="text172">discreteIoDevice (Device Type: 0x07)</text>
  <path
     d="m 205.75,409.5 h -33 v -254"
     fill="none"
     pointer-events="stroke"
     stroke="#000000"
     stroke-miterlimit="10"
     id="path178" />
  <rect
     x="275.75"
     y="419.5"
     width="80"
     height="20"
     fill="none"
     pointer-events="all"
     id="rect180" />
  <text
     x="277.25"
     y="433"
     fill="#000000"
     font-family="Arial"
     font-size="12px"
     id="text182">eds</text>
  <rect
     x="275.75"
     y="439.5"
     width="80"
     height="20"
     fill="none"
     pointer-events="all"
     id="rect188" />
  <text
     x="277.25"
     y="453"
     fill="#000000"
     font-family="Arial"
     font-size="12px"
     id="text190">soc</text>
  <rect
     x="245.75"
     y="423.5"
     width="12"
     height="12"
     id="rect196"
     style="fill:none" />
  <path
     d="m 251.75,425.5 1.4,-1.4 c 0.13,-0.12 0.27,-0.19 0.45,-0.19 h 3.1 c 0.32,0 0.71,0.3 0.71,0.81 v 0.79 z m -6.4,10 v -9 c 0,-0.44 0.36,-0.78 0.7,-0.78 h 11 v 9.8 z"
     stroke="#000000"
     stroke-miterlimit="10"
     stroke-width="0.5"
     id="path198"
     style="fill:none" />
  <rect
     x="245.75"
     y="443.5"
     width="12"
     height="12"
     id="rect200"
     style="fill:none" />
  <path
     d="m 251.75,445.5 1.4,-1.4 c 0.13,-0.12 0.27,-0.19 0.45,-0.19 h 3.1 c 0.32,0 0.71,0.3 0.71,0.81 v 0.79 z m -6.4,10 v -9 c 0,-0.44 0.36,-0.78 0.7,-0.78 h 11 v 9.8 z"
     stroke="#000000"
     stroke-miterlimit="10"
     stroke-width="0.5"
     id="path202"
     style="fill:none" />
  <rect
     x="245.75"
     y="463.5"
     width="9"
     height="12"
     id="rect204"
     style="fill:none" />
  <path
     d="m 247.75,469.5 v -0.57 h 4.6 v 0.57 z m 0,1.5 v -0.57 h 4.6 V 471 Z m 0,1.5 v -0.57 h 4.6 v 0.57 z m -1.7,2.1 h 8 v -7.8 h -2.6 v -3 h -5.4 z m -0.51,0.57 v -12 h 6.3 l 2.7,3 v 9 z"
     fill="#505050"
     pointer-events="all"
     id="path208" />
  <rect
     x="275.75"
     y="459.5"
     width="160"
     height="20"
     fill="none"
     pointer-events="all"
     id="rect210" />
  <text
     x="277.25"
     y="473"
     fill="#000000"
     font-family="Arial"
     font-size="12px"
     id="text212">app_discrete_io_device.c</text>
  <rect
     x="245.75"
     y="483.5"
     width="9"
     height="12"
     fill="none"
     id="rect218" />
  <path
     d="m 247.75,489.5 v -0.57 h 4.6 v 0.57 z m 0,1.5 v -0.57 h 4.6 V 491 Z m 0,1.5 v -0.57 h 4.6 v 0.57 z m -1.7,2.1 h 8 v -7.8 h -2.6 v -3 h -5.4 z m -0.51,0.57 v -12 h 6.3 l 2.7,3 v 9 z"
     fill="#505050"
     id="path220" />
  <rect
     x="275.75"
     y="479.5"
     width="160"
     height="20"
     fill="none"
     id="rect222" />
  <text
     x="277.25"
     y="493"
     fill="#000000"
     font-family="Arial"
     font-size="12px"
     id="text226">app_discrete_io_device.h</text>
  <path
     d="m 245.75,429.5 h -33 v -14"
     id="path232"
     style="fill:none;stroke:#000000;stroke-miterlimit:10" />
  <path
     d="m 245.75,449.5 h -33 v -34"
     id="path234"
     style="fill:none;stroke:#000000;stroke-miterlimit:10" />
  <path
     d="m 245.75,469.5 h -33 v -54"
     id="path236"
     style="fill:none;stroke:#000000;stroke-miterlimit:10" />
  <path
     d="m 245.75,489.5 h -33 v -74"
     id="path238"
     style="fill:none;stroke:#000000;stroke-miterlimit:10" />
  <rect
     x="205.75"
     y="563.5"
     width="14"
     height="12"
     id="rect242"
     style="fill:none" />
  <path
     d="m 205.75,575.5 2.6,-6.7 c 0.17,-0.39 0.6,-0.68 0.96,-0.69 h 9.4 c 0.32,0.02 0.7,0.39 0.45,1 l -2.3,6.4 z m -0.37,-0.63 v -8.8 c 0,-0.5 0.4,-0.84 0.72,-0.84 h 5.8 l 0.83,-1.3 c 0.12,-0.16 0.37,-0.41 0.67,-0.42 h 3.5 c 0.38,0 0.75,0.36 0.75,0.83 v 3.2 h -8.4 c -0.55,0 -1.2,0.4 -1.4,0.98 z"
     stroke="#000000"
     stroke-miterlimit="10"
     stroke-width="0.5"
     id="path244"
     style="fill:none" />
  <rect
     x="275.75"
     y="559.5"
     width="200"
     height="20"
     id="rect246"
     style="fill:none" />
  <text
     x="277.25"
     y="573"
     fill="#000000"
     font-family="Arial"
     font-size="12px"
     id="text252">additional profiles</text>
  <path
     d="m 205.75,569.5 h -33 v -414"
     fill="none"
     pointer-events="stroke"
     stroke="#000000"
     stroke-dasharray="3, 3"
     stroke-miterlimit="10"
     id="path258" />
  <rect
     x="275.75"
     y="19.5"
     width="80"
     height="20"
     fill="none"
     pointer-events="all"
     id="rect260" />
  <text
     x="277.25"
     y="33"
     fill="#000000"
     font-family="Arial"
     font-size="12px"
     id="text262">examples</text>
  <rect
     x="45.75"
     y="23.5"
     width="14"
     height="12"
     id="rect268"
     style="fill:none" />
  <path
     d="m 45.75,35.5 2.6,-6.7 c 0.17,-0.39 0.6,-0.68 0.96,-0.69 h 9.4 c 0.32,0.02 0.7,0.39 0.45,1 l -2.3,6.4 z m -0.37,-0.63 v -8.8 c 0,-0.5 0.4,-0.84 0.72,-0.84 h 5.8 l 0.83,-1.3 c 0.12,-0.16 0.37,-0.41 0.67,-0.42 h 3.5 c 0.38,0 0.75,0.36 0.75,0.83 v 3.2 h -8.4 c -0.55,0 -1.2,0.4 -1.4,0.98 z"
     stroke="#000000"
     stroke-miterlimit="10"
     stroke-width="0.5"
     id="path270"
     style="fill:none" />
  <rect
     x="205.75"
     y="163.5"
     width="9"
     height="12"
     id="rect272"
     style="fill:none" />
  <path
     d="m 207.75,169.5 v -0.57 h 4.6 v 0.57 z m 0,1.5 v -0.57 h 4.6 V 171 Z m 0,1.5 v -0.57 h 4.6 v 0.57 z m -1.7,2.1 h 8 v -7.8 h -2.6 v -3 h -5.4 z m -0.51,0.57 v -12 h 6.3 l 2.7,3 v 9 z"
     fill="#505050"
     id="path276" />
  <rect
     x="205.75"
     y="183.5"
     width="9"
     height="12"
     fill="none"
     id="rect278" />
  <path
     d="m 207.75,189.5 v -0.57 h 4.6 v 0.57 z m 0,1.5 v -0.57 h 4.6 V 191 Z m 0,1.5 v -0.57 h 4.6 v 0.57 z m -1.7,2.1 h 8 v -7.8 h -2.6 v -3 h -5.4 z m -0.51,0.57 v -12 h 6.3 l 2.7,3 v 9 z"
     fill="#505050"
     id="path280" />
  <rect
     x="205.75"
     y="203.5"
     width="9"
     height="12"
     fill="none"
     id="rect282" />
  <path
     d="m 207.75,209.5 v -0.57 h 4.6 v 0.57 z m 0,1.5 v -0.57 h 4.6 V 211 Z m 0,1.5 v -0.57 h 4.6 v 0.57 z m -1.7,2.1 h 8 v -7.8 h -2.6 v -3 h -5.4 z m -0.51,0.57 v -12 h 6.3 l 2.7,3 v 9 z"
     fill="#505050"
     id="path284" />
  <path
     d="m 205.75,169.5 h -33 v -14"
     id="path288"
     style="fill:none;stroke:#000000;stroke-miterlimit:10" />
  <path
     d="m 205.75,189.5 h -33 v -34"
     id="path290"
     style="fill:none;stroke:#000000;stroke-miterlimit:10" />
  <path
     d="m 205.75,209.5 h -33 v -54"
     id="path292"
     style="fill:none;stroke:#000000;stroke-miterlimit:10" />
  <rect
     x="245.75"
     y="343.5"
     width="9"
     height="12"
     pointer-events="all"
     id="rect296"
     style="fill:none" />
  <path
     d="m 247.75,349.5 v -0.57 h 4.6 v 0.57 z m 0,1.5 v -0.57 h 4.6 V 351 Z m 0,1.5 v -0.57 h 4.6 v 0.57 z m -1.7,2.1 h 8 v -7.8 h -2.6 v -3 h -5.4 z m -0.51,0.57 v -12 h 6.3 l 2.7,3 v 9 z"
     fill="#505050"
     id="path300" />
  <rect
     x="245.75"
     y="363.5"
     width="9"
     height="12"
     fill="none"
     id="rect302" />
  <path
     d="m 247.75,369.5 v -0.57 h 4.6 v 0.57 z m 0,1.5 v -0.57 h 4.6 V 371 Z m 0,1.5 v -0.57 h 4.6 v 0.57 z m -1.7,2.1 h 8 v -7.8 h -2.6 v -3 h -5.4 z m -0.51,0.57 v -12 h 6.3 l 2.7,3 v 9 z"
     fill="#505050"
     id="path304" />
  <rect
     x="245.75"
     y="503.5"
     width="9"
     height="12"
     fill="none"
     id="rect306" />
  <path
     d="m 247.75,509.5 v -0.57 h 4.6 v 0.57 z m 0,1.5 v -0.57 h 4.6 V 511 Z m 0,1.5 v -0.57 h 4.6 v 0.57 z m -1.7,2.1 h 8 v -7.8 h -2.6 v -3 h -5.4 z m -0.51,0.57 v -12 h 6.3 l 2.7,3 v 9 z"
     fill="#505050"
     id="path308" />
  <rect
     x="245.75"
     y="523.5"
     width="9"
     height="12"
     fill="none"
     id="rect310" />
  <path
     d="m 247.75,529.5 v -0.57 h 4.6 v 0.57 z m 0,1.5 v -0.57 h 4.6 V 531 Z m 0,1.5 v -0.57 h 4.6 v 0.57 z m -1.7,2.1 h 8 v -7.8 h -2.6 v -3 h -5.4 z m -0.51,0.57 v -12 h 6.3 l 2.7,3 v 9 z"
     fill="#505050"
     id="path312" />
  <path
     d="m 212.75,255.5 v 94 h 33"
     id="path316"
     style="fill:none;stroke:#000000;stroke-miterlimit:10" />
  <path
     d="m 212.75,255.5 v 114 h 33"
     id="path318"
     style="fill:none;stroke:#000000;stroke-miterlimit:10" />
  <path
     d="m 245.75,509.5 h -33 v -94"
     id="path320"
     style="fill:none;stroke:#000000;stroke-miterlimit:10" />
  <path
     d="m 245.75,529.5 h -33 v -114"
     id="path322"
     style="fill:none;stroke:#000000;stroke-miterlimit:10" />
  <rect
     x="275.75"
     y="339.5"
     width="200"
     height="20"
     pointer-events="all"
     id="rect326"
     style="fill:none" />
  <text
     x="277.25"
     y="353"
     fill="#000000"
     font-family="Arial"
     font-size="12px"
     id="text330">app_generic_device_cfg.c</text>
  <rect
     x="275.75"
     y="359.5"
     width="200"
     height="20"
     fill="none"
     pointer-events="all"
     id="rect336" />
  <text
     x="277.25"
     y="373"
     fill="#000000"
     font-family="Arial"
     font-size="12px"
     id="text338">app_generic_device_cfg.h</text>
  <rect
     x="275.75"
     y="499.5"
     width="200"
     height="20"
     fill="none"
     pointer-events="all"
     id="rect344" />
  <text
     x="277.25"
     y="513"
     fill="#000000"
     font-family="Arial"
     font-size="12px"
     id="text346">app_discrete_io_device_cfg.c</text>
  <rect
     x="275.75"
     y="519.5"
     width="200"
     height="20"
     fill="none"
     pointer-events="all"
     id="rect352" />
  <text
     x="277.25"
     y="533"
     fill="#000000"
     font-family="Arial"
     font-size="12px"
     id="text354">app_discrete_io_device_cfg.h</text>
  <rect
     x="275.75"
     y="159.5"
     width="200"
     height="20"
     fill="none"
     pointer-events="all"
     id="rect360" />
  <text
     x="277.25"
     y="173"
     fill="#000000"
     font-family="Arial"
     font-size="12px"
     id="text362">app_device_profile.c</text>
  <rect
     x="275.75"
     y="179.5"
     width="200"
     height="20"
     fill="none"
     pointer-events="all"
     id="rect368" />
  <text
     x="277.25"
     y="193"
     fill="#000000"
     font-family="Arial"
     font-size="12px"
     id="text370">app_device_profile.h</text>
  <rect
     x="275.75"
     y="199.5"
     width="200"
     height="20"
     fill="none"
     pointer-events="all"
     id="rect376" />
  <text
     x="277.25"
     y="213"
     fill="#000000"
     font-family="Arial"
     font-size="12px"
     id="text378">app_device_profile_intern.h</text>
  <metadata
     id="metadata390">
    <rdf:RDF>
      <cc:Work
         rdf:about="">
        <dc:title>EtherNet/IP Directory Structure - Device Profile Examples</dc:title>
      </cc:Work>
    </rdf:RDF>
  </metadata>
</svg>
